<svg width="182" height="88" viewBox="0 0 182 88" fill="none" xmlns="http://www.w3.org/2000/svg">
<path d="M43.1797 54.7969H39.2272C38.5297 47.415 32.6397 41.5056 25.2578 40.8275V36.875C25.2578 36.0806 24.5991 35.4219 23.8047 35.4219C23.0103 35.4219 22.3516 36.0806 22.3516 36.875V40.8275C14.9697 41.525 9.06031 47.415 8.38219 54.7969H4.42969C3.63531 54.7969 2.97656 55.4556 2.97656 56.25C2.97656 57.0444 3.63531 57.7031 4.42969 57.7031H8.38219C9.07969 65.085 14.9697 70.9944 22.3516 71.6725V75.625C22.3516 76.4194 23.0103 77.0781 23.8047 77.0781C24.5991 77.0781 25.2578 76.4194 25.2578 75.625V71.6725C32.6397 70.975 38.5491 65.085 39.2272 57.7031H43.1797C43.9741 57.7031 44.6328 57.0444 44.6328 56.25C44.6328 55.4556 43.9741 54.7969 43.1797 54.7969ZM23.8047 62.295C20.4722 62.295 17.7597 59.5825 17.7597 56.25C17.7597 52.9175 20.4722 50.205 23.8047 50.205C27.1372 50.205 29.8497 52.9175 29.8497 56.25C29.8497 59.5825 27.1372 62.295 23.8047 62.295Z" fill="#0A3B40"/>
<path d="M74.7823 66.75L67.7023 57.45V66.75H62.5723V45.69H67.7023V54.93L74.7223 45.69H80.7523L72.5923 56.01L81.0523 66.75H74.7823ZM81.5951 58.35C81.5951 56.63 81.9151 55.12 82.5551 53.82C83.2151 52.52 84.1051 51.52 85.2251 50.82C86.3451 50.12 87.5951 49.77 88.9751 49.77C90.1551 49.77 91.1851 50.01 92.0651 50.49C92.9651 50.97 93.6551 51.6 94.1351 52.38V50.01H99.2651V66.75H94.1351V64.38C93.6351 65.16 92.9351 65.79 92.0351 66.27C91.1551 66.75 90.1251 66.99 88.9451 66.99C87.5851 66.99 86.3451 66.64 85.2251 65.94C84.1051 65.22 83.2151 64.21 82.5551 62.91C81.9151 61.59 81.5951 60.07 81.5951 58.35ZM94.1351 58.38C94.1351 57.1 93.7751 56.09 93.0551 55.35C92.3551 54.61 91.4951 54.24 90.4751 54.24C89.4551 54.24 88.5851 54.61 87.8651 55.35C87.1651 56.07 86.8151 57.07 86.8151 58.35C86.8151 59.63 87.1651 60.65 87.8651 61.41C88.5851 62.15 89.4551 62.52 90.4751 62.52C91.4951 62.52 92.3551 62.15 93.0551 61.41C93.7751 60.67 94.1351 59.66 94.1351 58.38ZM115.204 66.96C113.664 66.96 112.284 66.71 111.064 66.21C109.844 65.71 108.864 64.97 108.124 63.99C107.404 63.01 107.024 61.83 106.984 60.45H112.444C112.524 61.23 112.794 61.83 113.254 62.25C113.714 62.65 114.314 62.85 115.054 62.85C115.814 62.85 116.414 62.68 116.854 62.34C117.294 61.98 117.514 61.49 117.514 60.87C117.514 60.35 117.334 59.92 116.974 59.58C116.634 59.24 116.204 58.96 115.684 58.74C115.184 58.52 114.464 58.27 113.524 57.99C112.164 57.57 111.054 57.15 110.194 56.73C109.334 56.31 108.594 55.69 107.974 54.87C107.354 54.05 107.044 52.98 107.044 51.66C107.044 49.7 107.754 48.17 109.174 47.07C110.594 45.95 112.444 45.39 114.724 45.39C117.044 45.39 118.914 45.95 120.334 47.07C121.754 48.17 122.514 49.71 122.614 51.69H117.064C117.024 51.01 116.774 50.48 116.314 50.1C115.854 49.7 115.264 49.5 114.544 49.5C113.924 49.5 113.424 49.67 113.044 50.01C112.664 50.33 112.474 50.8 112.474 51.42C112.474 52.1 112.794 52.63 113.434 53.01C114.074 53.39 115.074 53.8 116.434 54.24C117.794 54.7 118.894 55.14 119.734 55.56C120.594 55.98 121.334 56.59 121.954 57.39C122.574 58.19 122.884 59.22 122.884 60.48C122.884 61.68 122.574 62.77 121.954 63.75C121.354 64.73 120.474 65.51 119.314 66.09C118.154 66.67 116.784 66.96 115.204 66.96ZM130.296 52.38C130.796 51.6 131.486 50.97 132.366 50.49C133.246 50.01 134.276 49.77 135.456 49.77C136.836 49.77 138.086 50.12 139.206 50.82C140.326 51.52 141.206 52.52 141.846 53.82C142.506 55.12 142.836 56.63 142.836 58.35C142.836 60.07 142.506 61.59 141.846 62.91C141.206 64.21 140.326 65.22 139.206 65.94C138.086 66.64 136.836 66.99 135.456 66.99C134.296 66.99 133.266 66.75 132.366 66.27C131.486 65.79 130.796 65.17 130.296 64.41V74.73H125.166V50.01H130.296V52.38ZM137.616 58.35C137.616 57.07 137.256 56.07 136.536 55.35C135.836 54.61 134.966 54.24 133.926 54.24C132.906 54.24 132.036 54.61 131.316 55.35C130.616 56.09 130.266 57.1 130.266 58.38C130.266 59.66 130.616 60.67 131.316 61.41C132.036 62.15 132.906 62.52 133.926 62.52C134.946 62.52 135.816 62.15 136.536 61.41C137.256 60.65 137.616 59.63 137.616 58.35ZM152.272 66.99C150.632 66.99 149.152 66.64 147.832 65.94C146.532 65.24 145.502 64.24 144.742 62.94C144.002 61.64 143.632 60.12 143.632 58.38C143.632 56.66 144.012 55.15 144.772 53.85C145.532 52.53 146.572 51.52 147.892 50.82C149.212 50.12 150.692 49.77 152.332 49.77C153.972 49.77 155.452 50.12 156.772 50.82C158.092 51.52 159.132 52.53 159.892 53.85C160.652 55.15 161.032 56.66 161.032 58.38C161.032 60.1 160.642 61.62 159.862 62.94C159.102 64.24 158.052 65.24 156.712 65.94C155.392 66.64 153.912 66.99 152.272 66.99ZM152.272 62.55C153.252 62.55 154.082 62.19 154.762 61.47C155.462 60.75 155.812 59.72 155.812 58.38C155.812 57.04 155.472 56.01 154.792 55.29C154.132 54.57 153.312 54.21 152.332 54.21C151.332 54.21 150.502 54.57 149.842 55.29C149.182 55.99 148.852 57.02 148.852 58.38C148.852 59.72 149.172 60.75 149.812 61.47C150.472 62.19 151.292 62.55 152.272 62.55ZM172.208 62.4V66.75H169.598C167.738 66.75 166.288 66.3 165.248 65.4C164.208 64.48 163.688 62.99 163.688 60.93V54.27H161.648V50.01H163.688V45.93H168.818V50.01H172.178V54.27H168.818V60.99C168.818 61.49 168.938 61.85 169.178 62.07C169.418 62.29 169.818 62.4 170.378 62.4H172.208ZM176.771 48.27C175.871 48.27 175.131 48.01 174.551 47.49C173.991 46.95 173.711 46.29 173.711 45.51C173.711 44.71 173.991 44.05 174.551 43.53C175.131 42.99 175.871 42.72 176.771 42.72C177.651 42.72 178.371 42.99 178.931 43.53C179.511 44.05 179.801 44.71 179.801 45.51C179.801 46.29 179.511 46.95 178.931 47.49C178.371 48.01 177.651 48.27 176.771 48.27ZM179.321 50.01V66.75H174.191V50.01H179.321Z" fill="#0A3B40"/>
</svg>
