<svg width="21" height="22" viewBox="0 0 21 22" fill="none" xmlns="http://www.w3.org/2000/svg">
<g clip-path="url(#clip0_816_6116)">
<path d="M19.1646 15.2859V17.8992C19.1656 18.1418 19.1159 18.382 19.0187 18.6042C18.9215 18.8265 18.779 19.0261 18.6002 19.1901C18.4214 19.3541 18.2104 19.479 17.9805 19.5567C17.7507 19.6344 17.5072 19.6633 17.2656 19.6414C14.585 19.3502 12.0102 18.4342 9.74789 16.9671C7.64314 15.6297 5.85867 13.8452 4.52123 11.7405C3.04903 9.46791 2.13285 6.88052 1.84691 4.18792C1.82515 3.94703 1.85377 3.70425 1.93098 3.47503C2.00818 3.24581 2.13226 3.03517 2.29533 2.85654C2.4584 2.6779 2.65688 2.53517 2.87813 2.43745C3.09938 2.33972 3.33855 2.28913 3.58043 2.2889H6.19376C6.61651 2.28474 7.02636 2.43445 7.3469 2.71011C7.66744 2.98578 7.87681 3.3686 7.93598 3.78721C8.04628 4.62354 8.25084 5.4447 8.54576 6.23504C8.66296 6.54683 8.68833 6.88568 8.61885 7.21145C8.54937 7.53721 8.38797 7.83623 8.15376 8.07308L7.04745 9.17939C8.28752 11.3603 10.0932 13.166 12.2741 14.4061L13.3804 13.2997C13.6173 13.0655 13.9163 12.9041 14.2421 12.8347C14.5678 12.7652 14.9067 12.7905 15.2185 12.9077C16.0088 13.2027 16.83 13.4072 17.6663 13.5175C18.0894 13.5772 18.4759 13.7904 18.7522 14.1164C19.0284 14.4425 19.1752 14.8587 19.1646 15.2859Z" stroke="white" stroke-width="1.74222" stroke-linecap="round" stroke-linejoin="round"/>
</g>
<defs>
<clipPath id="clip0_816_6116">
<rect width="20.9067" height="20.9067" fill="white" transform="translate(0 0.546631)"/>
</clipPath>
</defs>
</svg>
