<svg width="24" height="25" viewBox="0 0 24 25" fill="none" xmlns="http://www.w3.org/2000/svg">
<path d="M7 9.5C8.933 9.5 10.5 7.933 10.5 6C10.5 4.06701 8.933 2.5 7 2.5C5.067 2.5 3.5 4.06701 3.5 6C3.5 7.933 5.067 9.5 7 9.5Z" stroke="#18786D" stroke-width="2" stroke-linejoin="round"/>
<path d="M17 9.5C18.933 9.5 20.5 7.933 20.5 6C20.5 4.06701 18.933 2.5 17 2.5C15.067 2.5 13.5 4.06701 13.5 6C13.5 7.933 15.067 9.5 17 9.5Z" stroke="#18786D" stroke-width="2" stroke-linejoin="round"/>
<path d="M2 22.5C2 22.0556 2 20.5556 2 18C2 15.2386 3.88511 13 6.21055 13C7.33335 13 8.17545 13 8.73685 13C10.7793 13 12 15.0134 12 15.0134" stroke="#18786D" stroke-width="2" stroke-linecap="round" stroke-linejoin="round"/>
<path d="M22 22.5C22 22.0556 22 20.5556 22 18C22 15.2386 20.0925 13 17.7394 13C16.6032 13 15.7511 13 15.183 13C13.2024 13 11.9961 15.0134 12 15.0134" stroke="#18786D" stroke-width="2" stroke-linecap="round" stroke-linejoin="round"/>
<path d="M5.5 20.5H19" stroke="#18786D" stroke-width="2" stroke-linecap="round" stroke-linejoin="round"/>
<path d="M17.1475 18.6289L17.7673 19.2525L19.0068 20.4997L17.7673 21.7804L17.1475 22.4208" stroke="#18786D" stroke-width="2" stroke-linecap="round" stroke-linejoin="round"/>
<path d="M7.16419 18.6162L6.53459 19.243L5.27539 20.4966L6.53459 21.7709L7.16419 22.4081" stroke="#18786D" stroke-width="2" stroke-linecap="round" stroke-linejoin="round"/>
</svg>
