<svg width="24" height="25" viewBox="0 0 24 25" fill="none" xmlns="http://www.w3.org/2000/svg">
<g clip-path="url(#clip0_816_6064)">
<path d="M12 23.5C18.0751 23.5 23 18.5751 23 12.5C23 6.42487 18.0751 1.5 12 1.5C5.92487 1.5 1 6.42487 1 12.5C1 18.5751 5.92487 23.5 12 23.5Z" stroke="#18786D" stroke-width="1.65" stroke-linecap="round" stroke-linejoin="round"/>
<path d="M1 12.5H23" stroke="#18786D" stroke-width="1.65" stroke-linecap="round" stroke-linejoin="round"/>
<path d="M12.0006 1.5C14.752 4.51219 16.3156 8.42124 16.4006 12.5C16.3156 16.5788 14.752 20.4878 12.0006 23.5C9.24918 20.4878 7.68556 16.5788 7.60059 12.5C7.68556 8.42124 9.24918 4.51219 12.0006 1.5V1.5Z" stroke="#18786D" stroke-width="1.65" stroke-linecap="round" stroke-linejoin="round"/>
</g>
<defs>
<clipPath id="clip0_816_6064">
<rect width="24" height="24" fill="white" transform="translate(0 0.5)"/>
</clipPath>
</defs>
</svg>
